<svg width="298" height="278" viewBox="0 0 298 278" fill="none" xmlns="http://www.w3.org/2000/svg">
<path d="M13.9951 243.697C11.694 243.697 9.71242 243.154 8.05049 242.067C6.38855 240.98 5.11015 239.483 4.21526 237.576C3.32037 235.67 2.87293 233.491 2.87293 231.041C2.87293 228.548 3.33103 226.348 4.24722 224.441C5.17407 222.523 6.46313 221.026 8.11441 219.95C9.77634 218.864 11.7153 218.32 13.9312 218.32C15.657 218.32 17.2124 218.64 18.5974 219.279C19.9823 219.918 21.1169 220.813 22.0011 221.964C22.8854 223.114 23.434 224.457 23.6471 225.991H19.8758C19.5881 224.872 18.9489 223.882 17.9582 223.019C16.978 222.145 15.657 221.708 13.9951 221.708C12.5249 221.708 11.2359 222.092 10.1279 222.859C9.0306 223.615 8.173 224.686 7.5551 226.071C6.94786 227.445 6.64424 229.059 6.64424 230.913C6.64424 232.809 6.94253 234.46 7.53912 235.867C8.14637 237.273 8.99864 238.365 10.0959 239.143C11.2039 239.92 12.5036 240.309 13.9951 240.309C14.9752 240.309 15.8648 240.139 16.6638 239.798C17.4628 239.457 18.1393 238.967 18.6932 238.328C19.2472 237.688 19.6414 236.921 19.8758 236.026H23.6471C23.434 237.475 22.9067 238.78 22.065 239.942C21.2341 241.092 20.1315 242.008 18.7572 242.69C17.3935 243.361 15.8062 243.697 13.9951 243.697ZM36.3832 243.761C34.8278 243.761 33.4163 243.468 32.1485 242.882C30.8807 242.285 29.874 241.428 29.1283 240.309C28.3825 239.18 28.0096 237.816 28.0096 236.218C28.0096 234.812 28.2866 233.672 28.8406 232.798C29.3946 231.914 30.135 231.222 31.0618 230.721C31.9887 230.22 33.0114 229.847 34.13 229.602C35.2593 229.347 36.3939 229.144 37.5338 228.995C39.0253 228.803 40.2344 228.66 41.1613 228.564C42.0988 228.457 42.7806 228.281 43.2067 228.036C43.6435 227.791 43.8619 227.365 43.8619 226.758V226.63C43.8619 225.053 43.4305 223.828 42.5675 222.955C41.7153 222.081 40.4209 221.644 38.6844 221.644C36.8839 221.644 35.4724 222.038 34.4496 222.827C33.4269 223.615 32.7078 224.457 32.2923 225.352L28.7128 224.073C29.352 222.582 30.2043 221.421 31.2696 220.59C32.3456 219.748 33.5175 219.162 34.7852 218.832C36.0636 218.491 37.3207 218.32 38.5565 218.32C39.3449 218.32 40.2504 218.416 41.2731 218.608C42.3065 218.789 43.3026 219.167 44.2614 219.743C45.2309 220.318 46.0352 221.186 46.6744 222.347C47.3136 223.509 47.6332 225.064 47.6332 227.014V243.185H43.8619V239.862H43.6702C43.4145 240.394 42.9883 240.964 42.3918 241.571C41.7952 242.179 41.0015 242.695 40.0107 243.122C39.0199 243.548 37.8108 243.761 36.3832 243.761ZM36.9585 240.373C38.45 240.373 39.7071 240.08 40.7298 239.494C41.7632 238.908 42.5409 238.152 43.0629 237.225C43.5956 236.298 43.8619 235.323 43.8619 234.301V230.849C43.7021 231.041 43.3506 231.216 42.8072 231.376C42.2746 231.525 41.6567 231.658 40.9535 231.776C40.2611 231.882 39.5846 231.978 38.9241 232.063C38.2742 232.138 37.7469 232.202 37.342 232.255C36.3619 232.383 35.4457 232.591 34.5935 232.878C33.7518 233.155 33.07 233.576 32.548 234.141C32.0366 234.695 31.781 235.451 31.781 236.41C31.781 237.72 32.2657 238.711 33.2351 239.382C34.2153 240.043 35.4564 240.373 36.9585 240.373ZM54.5167 243.185V218.64H58.1601V222.347H58.4158C58.8633 221.133 59.6729 220.147 60.8448 219.391C62.0167 218.635 63.3377 218.257 64.8079 218.257C65.0848 218.257 65.4311 218.262 65.8466 218.272C66.262 218.283 66.5763 218.299 66.7894 218.32V222.156C66.6615 222.124 66.3686 222.076 65.9105 222.012C65.463 221.937 64.989 221.9 64.4883 221.9C63.2951 221.9 62.2297 222.15 61.2922 222.651C60.3654 223.141 59.6303 223.823 59.087 224.696C58.5543 225.559 58.288 226.545 58.288 227.653V243.185H54.5167ZM80.8039 243.697C78.4389 243.697 76.3988 243.175 74.6836 242.131C72.979 241.076 71.6633 239.606 70.7365 237.72C69.8203 235.824 69.3622 233.619 69.3622 231.105C69.3622 228.59 69.8203 226.374 70.7365 224.457C71.6633 222.529 72.9524 221.026 74.6037 219.95C76.2656 218.864 78.2045 218.32 80.4204 218.32C81.6988 218.32 82.9613 218.533 84.2077 218.96C85.4542 219.386 86.5888 220.078 87.6115 221.037C88.6342 221.985 89.4492 223.242 90.0564 224.808C90.6637 226.374 90.9673 228.303 90.9673 230.593V232.191H72.0468V228.931H87.1321C87.1321 227.546 86.8551 226.31 86.3011 225.224C85.7578 224.137 84.9801 223.28 83.968 222.651C82.9666 222.022 81.7841 221.708 80.4204 221.708C78.9183 221.708 77.6186 222.081 76.5213 222.827C75.4346 223.562 74.5983 224.521 74.0124 225.703C73.4265 226.886 73.1335 228.154 73.1335 229.507V231.68C73.1335 233.533 73.4531 235.105 74.0923 236.394C74.7422 237.672 75.6424 238.647 76.7929 239.318C77.9435 239.979 79.2805 240.309 80.8039 240.309C81.7947 240.309 82.6896 240.171 83.4886 239.894C84.2983 239.606 84.9961 239.18 85.582 238.615C86.1679 238.04 86.6207 237.326 86.9403 236.474L90.5838 237.497C90.2003 238.732 89.5557 239.819 88.6502 240.757C87.7446 241.683 86.626 242.408 85.2944 242.93C83.9627 243.441 82.4659 243.697 80.8039 243.697ZM116.583 243.761C115.028 243.761 113.616 243.468 112.349 242.882C111.081 242.285 110.074 241.428 109.328 240.309C108.583 239.18 108.21 237.816 108.21 236.218C108.21 234.812 108.487 233.672 109.041 232.798C109.595 231.914 110.335 231.222 111.262 230.721C112.189 230.22 113.212 229.847 114.33 229.602C115.459 229.347 116.594 229.144 117.734 228.995C119.225 228.803 120.435 228.66 121.361 228.564C122.299 228.457 122.981 228.281 123.407 228.036C123.844 227.791 124.062 227.365 124.062 226.758V226.63C124.062 225.053 123.631 223.828 122.768 222.955C121.915 222.081 120.621 221.644 118.885 221.644C117.084 221.644 115.673 222.038 114.65 222.827C113.627 223.615 112.908 224.457 112.493 225.352L108.913 224.073C109.552 222.582 110.404 221.421 111.47 220.59C112.546 219.748 113.718 219.162 114.985 218.832C116.264 218.491 117.521 218.32 118.757 218.32C119.545 218.32 120.451 218.416 121.473 218.608C122.507 218.789 123.503 219.167 124.462 219.743C125.431 220.318 126.235 221.186 126.875 222.347C127.514 223.509 127.833 225.064 127.833 227.014V243.185H124.062V239.862H123.87C123.615 240.394 123.189 240.964 122.592 241.571C121.995 242.179 121.202 242.695 120.211 243.122C119.22 243.548 118.011 243.761 116.583 243.761ZM117.159 240.373C118.65 240.373 119.907 240.08 120.93 239.494C121.963 238.908 122.741 238.152 123.263 237.225C123.796 236.298 124.062 235.323 124.062 234.301V230.849C123.902 231.041 123.551 231.216 123.007 231.376C122.475 231.525 121.857 231.658 121.154 231.776C120.461 231.882 119.785 231.978 119.124 232.063C118.474 232.138 117.947 232.202 117.542 232.255C116.562 232.383 115.646 232.591 114.794 232.878C113.952 233.155 113.27 233.576 112.748 234.141C112.237 234.695 111.981 235.451 111.981 236.41C111.981 237.72 112.466 238.711 113.435 239.382C114.415 240.043 115.657 240.373 117.159 240.373ZM152.103 224.137L148.715 225.096C148.502 224.531 148.188 223.983 147.773 223.45C147.368 222.907 146.814 222.459 146.111 222.108C145.408 221.756 144.507 221.58 143.41 221.58C141.908 221.58 140.656 221.927 139.655 222.619C138.664 223.301 138.169 224.169 138.169 225.224C138.169 226.161 138.509 226.902 139.191 227.445C139.873 227.988 140.938 228.441 142.387 228.803L146.031 229.698C148.225 230.231 149.861 231.046 150.937 232.143C152.013 233.23 152.551 234.631 152.551 236.346C152.551 237.752 152.146 239.009 151.336 240.117C150.537 241.225 149.419 242.099 147.98 242.738C146.542 243.377 144.87 243.697 142.963 243.697C140.459 243.697 138.387 243.154 136.746 242.067C135.106 240.98 134.067 239.393 133.63 237.305L137.21 236.41C137.551 237.731 138.195 238.722 139.143 239.382C140.102 240.043 141.354 240.373 142.899 240.373C144.656 240.373 146.052 240 147.085 239.254C148.129 238.498 148.652 237.592 148.652 236.538C148.652 235.685 148.353 234.972 147.757 234.396C147.16 233.81 146.244 233.374 145.008 233.086L140.917 232.127C138.669 231.595 137.018 230.769 135.963 229.65C134.919 228.521 134.397 227.109 134.397 225.416C134.397 224.031 134.786 222.806 135.564 221.74C136.352 220.675 137.423 219.839 138.776 219.231C140.139 218.624 141.684 218.32 143.41 218.32C145.839 218.32 147.746 218.853 149.131 219.918C150.527 220.984 151.517 222.39 152.103 224.137ZM175.614 224.137L172.226 225.096C172.013 224.531 171.699 223.983 171.283 223.45C170.879 222.907 170.325 222.459 169.621 222.108C168.918 221.756 168.018 221.58 166.921 221.58C165.419 221.58 164.167 221.927 163.165 222.619C162.175 223.301 161.679 224.169 161.679 225.224C161.679 226.161 162.02 226.902 162.702 227.445C163.384 227.988 164.449 228.441 165.898 228.803L169.542 229.698C171.736 230.231 173.371 231.046 174.447 232.143C175.523 233.23 176.061 234.631 176.061 236.346C176.061 237.752 175.657 239.009 174.847 240.117C174.048 241.225 172.929 242.099 171.491 242.738C170.053 243.377 168.38 243.697 166.473 243.697C163.97 243.697 161.898 243.154 160.257 242.067C158.616 240.98 157.578 239.393 157.141 237.305L160.72 236.41C161.061 237.731 161.706 238.722 162.654 239.382C163.613 240.043 164.865 240.373 166.409 240.373C168.167 240.373 169.563 240 170.596 239.254C171.64 238.498 172.162 237.592 172.162 236.538C172.162 235.685 171.864 234.972 171.267 234.396C170.671 233.81 169.755 233.374 168.519 233.086L164.428 232.127C162.18 231.595 160.529 230.769 159.474 229.65C158.43 228.521 157.908 227.109 157.908 225.416C157.908 224.031 158.297 222.806 159.075 221.74C159.863 220.675 160.934 219.839 162.287 219.231C163.65 218.624 165.195 218.32 166.921 218.32C169.35 218.32 171.257 218.853 172.642 219.918C174.037 220.984 175.028 222.39 175.614 224.137ZM181.738 243.185V218.64H185.51V243.185H181.738ZM183.656 214.549C182.921 214.549 182.287 214.299 181.754 213.798C181.232 213.297 180.971 212.695 180.971 211.992C180.971 211.289 181.232 210.687 181.754 210.187C182.287 209.686 182.921 209.435 183.656 209.435C184.391 209.435 185.02 209.686 185.542 210.187C186.074 210.687 186.341 211.289 186.341 211.992C186.341 212.695 186.074 213.297 185.542 213.798C185.02 214.299 184.391 214.549 183.656 214.549ZM209.803 224.137L206.416 225.096C206.203 224.531 205.888 223.983 205.473 223.45C205.068 222.907 204.514 222.459 203.811 222.108C203.108 221.756 202.208 221.58 201.11 221.58C199.608 221.58 198.356 221.927 197.355 222.619C196.364 223.301 195.869 224.169 195.869 225.224C195.869 226.161 196.21 226.902 196.891 227.445C197.573 227.988 198.639 228.441 200.088 228.803L203.731 229.698C205.926 230.231 207.561 231.046 208.637 232.143C209.713 233.23 210.251 234.631 210.251 236.346C210.251 237.752 209.846 239.009 209.036 240.117C208.237 241.225 207.119 242.099 205.681 242.738C204.242 243.377 202.57 243.697 200.663 243.697C198.159 243.697 196.087 243.154 194.447 242.067C192.806 240.98 191.767 239.393 191.33 237.305L194.91 236.41C195.251 237.731 195.895 238.722 196.844 239.382C197.802 240.043 199.054 240.373 200.599 240.373C202.357 240.373 203.752 240 204.786 239.254C205.83 238.498 206.352 237.592 206.352 236.538C206.352 235.685 206.053 234.972 205.457 234.396C204.86 233.81 203.944 233.374 202.708 233.086L198.617 232.127C196.369 231.595 194.718 230.769 193.664 229.65C192.619 228.521 192.097 227.109 192.097 225.416C192.097 224.031 192.486 222.806 193.264 221.74C194.052 220.675 195.123 219.839 196.476 219.231C197.84 218.624 199.384 218.32 201.11 218.32C203.539 218.32 205.446 218.853 206.831 219.918C208.227 220.984 209.217 222.39 209.803 224.137ZM226.603 218.64V221.836H213.882V218.64H226.603ZM217.59 212.759H221.361V236.154C221.361 237.22 221.516 238.019 221.824 238.551C222.144 239.073 222.549 239.425 223.039 239.606C223.54 239.776 224.067 239.862 224.621 239.862C225.036 239.862 225.377 239.84 225.644 239.798C225.91 239.744 226.123 239.702 226.283 239.67L227.05 243.058C226.794 243.154 226.437 243.249 225.979 243.345C225.521 243.452 224.941 243.505 224.237 243.505C223.172 243.505 222.128 243.276 221.105 242.818C220.093 242.36 219.252 241.662 218.58 240.725C217.92 239.787 217.59 238.605 217.59 237.177V212.759ZM239.498 243.761C237.943 243.761 236.531 243.468 235.264 242.882C233.996 242.285 232.989 241.428 232.243 240.309C231.498 239.18 231.125 237.816 231.125 236.218C231.125 234.812 231.402 233.672 231.956 232.798C232.51 231.914 233.25 231.222 234.177 230.721C235.104 230.22 236.127 229.847 237.245 229.602C238.375 229.347 239.509 229.144 240.649 228.995C242.141 228.803 243.35 228.66 244.277 228.564C245.214 228.457 245.896 228.281 246.322 228.036C246.759 227.791 246.977 227.365 246.977 226.758V226.63C246.977 225.053 246.546 223.828 245.683 222.955C244.83 222.081 243.536 221.644 241.8 221.644C239.999 221.644 238.588 222.038 237.565 222.827C236.542 223.615 235.823 224.457 235.408 225.352L231.828 224.073C232.467 222.582 233.319 221.421 234.385 220.59C235.461 219.748 236.633 219.162 237.9 218.832C239.179 218.491 240.436 218.32 241.672 218.32C242.46 218.32 243.366 218.416 244.388 218.608C245.422 218.789 246.418 219.167 247.377 219.743C248.346 220.318 249.15 221.186 249.79 222.347C250.429 223.509 250.748 225.064 250.748 227.014V243.185H246.977V239.862H246.785C246.53 240.394 246.104 240.964 245.507 241.571C244.91 242.179 244.117 242.695 243.126 243.122C242.135 243.548 240.926 243.761 239.498 243.761ZM240.074 240.373C241.565 240.373 242.822 240.08 243.845 239.494C244.878 238.908 245.656 238.152 246.178 237.225C246.711 236.298 246.977 235.323 246.977 234.301V230.849C246.817 231.041 246.466 231.216 245.922 231.376C245.39 231.525 244.772 231.658 244.069 231.776C243.376 231.882 242.7 231.978 242.039 232.063C241.389 232.138 240.862 232.202 240.457 232.255C239.477 232.383 238.561 232.591 237.709 232.878C236.867 233.155 236.185 233.576 235.663 234.141C235.152 234.695 234.896 235.451 234.896 236.41C234.896 237.72 235.381 238.711 236.35 239.382C237.33 240.043 238.572 240.373 240.074 240.373ZM261.403 228.42V243.185H257.632V218.64H261.275V222.475H261.595C262.17 221.229 263.044 220.227 264.216 219.471C265.388 218.704 266.9 218.32 268.754 218.32C270.416 218.32 271.87 218.661 273.117 219.343C274.363 220.014 275.333 221.037 276.025 222.411C276.717 223.775 277.064 225.501 277.064 227.589V243.185H273.292V227.845C273.292 225.916 272.792 224.414 271.79 223.338C270.789 222.252 269.415 221.708 267.667 221.708C266.464 221.708 265.388 221.969 264.439 222.491C263.502 223.013 262.762 223.775 262.218 224.776C261.675 225.778 261.403 226.992 261.403 228.42ZM294.63 218.64V221.836H281.91V218.64H294.63ZM285.617 212.759H289.388V236.154C289.388 237.22 289.543 238.019 289.852 238.551C290.171 239.073 290.576 239.425 291.066 239.606C291.567 239.776 292.094 239.862 292.648 239.862C293.064 239.862 293.405 239.84 293.671 239.798C293.937 239.744 294.15 239.702 294.31 239.67L295.077 243.058C294.822 243.154 294.465 243.249 294.007 243.345C293.549 243.452 292.968 243.505 292.265 243.505C291.199 243.505 290.155 243.276 289.133 242.818C288.121 242.36 287.279 241.662 286.608 240.725C285.947 239.787 285.617 238.605 285.617 237.177V212.759Z" fill="#002859"/>
<path d="M73.9225 260.993L70.3377 267.847V272H68.9006V267.847L65.3 260.993H66.8951L69.6113 266.568L72.3275 260.993H73.9225ZM79.2126 272.142C78.402 272.142 77.665 271.958 77.0017 271.589C76.349 271.221 75.8331 270.7 75.4541 270.026C75.0856 269.342 74.9014 268.552 74.9014 267.657C74.9014 266.773 75.0909 265.994 75.4699 265.32C75.8595 264.636 76.3859 264.114 77.0491 263.757C77.7124 263.388 78.4546 263.204 79.2758 263.204C80.097 263.204 80.8392 263.388 81.5025 263.757C82.1658 264.114 82.6869 264.63 83.0659 265.304C83.4555 265.978 83.6502 266.762 83.6502 267.657C83.6502 268.552 83.4502 269.342 83.0501 270.026C82.6606 270.7 82.1289 271.221 81.4551 271.589C80.7813 271.958 80.0338 272.142 79.2126 272.142ZM79.2126 270.879C79.7285 270.879 80.2128 270.758 80.6655 270.516C81.1182 270.273 81.4814 269.91 81.7552 269.426C82.0394 268.942 82.1816 268.352 82.1816 267.657C82.1816 266.962 82.0447 266.373 81.771 265.888C81.4972 265.404 81.1393 265.046 80.6971 264.815C80.2549 264.572 79.7759 264.451 79.26 264.451C78.7336 264.451 78.2493 264.572 77.8071 264.815C77.3755 265.046 77.0281 265.404 76.7649 265.888C76.5017 266.373 76.3701 266.962 76.3701 267.657C76.3701 268.363 76.4964 268.957 76.7491 269.442C77.0123 269.926 77.3597 270.289 77.7914 270.531C78.223 270.763 78.6968 270.879 79.2126 270.879ZM93.2147 263.346V272H91.7776V270.721C91.5039 271.163 91.1196 271.51 90.6248 271.763C90.1405 272.005 89.6036 272.126 89.014 272.126C88.3402 272.126 87.7348 271.989 87.1979 271.716C86.661 271.431 86.2346 271.01 85.9187 270.452C85.6134 269.894 85.4608 269.215 85.4608 268.415V263.346H86.8821V268.226C86.8821 269.078 87.0979 269.736 87.5295 270.2C87.9612 270.652 88.5507 270.879 89.2982 270.879C90.0668 270.879 90.6722 270.642 91.1143 270.168C91.5565 269.694 91.7776 269.005 91.7776 268.099V263.346H93.2147ZM97.0782 264.751C97.3309 264.257 97.6888 263.872 98.1521 263.599C98.6258 263.325 99.1996 263.188 99.8734 263.188V264.672H99.4944C97.8836 264.672 97.0782 265.546 97.0782 267.294V272H95.6411V263.346H97.0782V264.751ZM110.038 263.188C110.691 263.188 111.28 263.33 111.807 263.614C112.333 263.888 112.744 264.304 113.038 264.862C113.344 265.42 113.496 266.099 113.496 266.899V272H112.075V267.104C112.075 266.241 111.859 265.583 111.428 265.13C110.996 264.667 110.406 264.436 109.659 264.436C108.901 264.436 108.296 264.672 107.843 265.146C107.401 265.62 107.18 266.31 107.18 267.215V272H105.743V260.314H107.18V264.578C107.464 264.136 107.853 263.793 108.348 263.551C108.854 263.309 109.417 263.188 110.038 263.188ZM123.74 267.341C123.74 267.615 123.724 267.905 123.693 268.21H116.776C116.828 269.063 117.118 269.731 117.644 270.215C118.181 270.689 118.829 270.926 119.587 270.926C120.208 270.926 120.724 270.784 121.134 270.5C121.555 270.205 121.85 269.815 122.019 269.331H123.566C123.335 270.163 122.871 270.842 122.177 271.368C121.482 271.884 120.618 272.142 119.587 272.142C118.765 272.142 118.028 271.958 117.376 271.589C116.734 271.221 116.228 270.7 115.86 270.026C115.491 269.342 115.307 268.552 115.307 267.657C115.307 266.762 115.486 265.978 115.844 265.304C116.202 264.63 116.702 264.114 117.344 263.757C117.997 263.388 118.744 263.204 119.587 263.204C120.408 263.204 121.134 263.383 121.766 263.741C122.398 264.099 122.882 264.594 123.219 265.225C123.566 265.846 123.74 266.552 123.74 267.341ZM122.255 267.041C122.255 266.494 122.134 266.025 121.892 265.636C121.65 265.236 121.318 264.936 120.897 264.736C120.487 264.525 120.029 264.42 119.523 264.42C118.797 264.42 118.176 264.651 117.66 265.115C117.155 265.578 116.865 266.22 116.791 267.041H122.255ZM125.1 267.641C125.1 266.757 125.279 265.983 125.637 265.32C125.995 264.646 126.484 264.125 127.106 263.757C127.737 263.388 128.437 263.204 129.206 263.204C129.964 263.204 130.622 263.367 131.18 263.693C131.738 264.02 132.154 264.43 132.427 264.925V263.346H133.88V272H132.427V270.389C132.143 270.895 131.717 271.316 131.148 271.653C130.59 271.979 129.938 272.142 129.19 272.142C128.422 272.142 127.727 271.953 127.106 271.574C126.484 271.195 125.995 270.663 125.637 269.979C125.279 269.294 125.1 268.515 125.1 267.641ZM132.427 267.657C132.427 267.004 132.296 266.436 132.033 265.952C131.769 265.467 131.411 265.099 130.959 264.846C130.517 264.583 130.027 264.451 129.49 264.451C128.953 264.451 128.464 264.578 128.021 264.83C127.579 265.083 127.227 265.452 126.963 265.936C126.7 266.42 126.569 266.989 126.569 267.641C126.569 268.305 126.7 268.884 126.963 269.379C127.227 269.863 127.579 270.237 128.021 270.5C128.464 270.752 128.953 270.879 129.49 270.879C130.027 270.879 130.517 270.752 130.959 270.5C131.411 270.237 131.769 269.863 132.033 269.379C132.296 268.884 132.427 268.31 132.427 267.657ZM137.746 260.314V272H136.309V260.314H137.746ZM141.948 264.53V269.631C141.948 270.052 142.038 270.352 142.217 270.531C142.396 270.7 142.706 270.784 143.148 270.784H144.206V272H142.911C142.111 272 141.511 271.816 141.111 271.447C140.711 271.079 140.511 270.473 140.511 269.631V264.53H139.39V263.346H140.511V261.167H141.948V263.346H144.206V264.53H141.948ZM150.243 263.188C150.896 263.188 151.485 263.33 152.012 263.614C152.538 263.888 152.949 264.304 153.244 264.862C153.549 265.42 153.702 266.099 153.702 266.899V272H152.28V267.104C152.28 266.241 152.064 265.583 151.633 265.13C151.201 264.667 150.612 264.436 149.864 264.436C149.106 264.436 148.501 264.672 148.048 265.146C147.606 265.62 147.385 266.31 147.385 267.215V272H145.948V260.314H147.385V264.578C147.669 264.136 148.058 263.793 148.553 263.551C149.059 263.309 149.622 263.188 150.243 263.188ZM157.533 270.01L155.765 274.258H154.801L155.954 270.01H157.533ZM167.164 272.142C166.353 272.142 165.617 271.958 164.953 271.589C164.301 271.221 163.785 270.7 163.406 270.026C163.037 269.342 162.853 268.552 162.853 267.657C162.853 266.773 163.042 265.994 163.421 265.32C163.811 264.636 164.337 264.114 165.001 263.757C165.664 263.388 166.406 263.204 167.227 263.204C168.049 263.204 168.791 263.388 169.454 263.757C170.117 264.114 170.638 264.63 171.017 265.304C171.407 265.978 171.602 266.762 171.602 267.657C171.602 268.552 171.402 269.342 171.002 270.026C170.612 270.7 170.08 271.221 169.407 271.589C168.733 271.958 167.985 272.142 167.164 272.142ZM167.164 270.879C167.68 270.879 168.164 270.758 168.617 270.516C169.07 270.273 169.433 269.91 169.707 269.426C169.991 268.942 170.133 268.352 170.133 267.657C170.133 266.962 169.996 266.373 169.722 265.888C169.449 265.404 169.091 265.046 168.649 264.815C168.206 264.572 167.727 264.451 167.212 264.451C166.685 264.451 166.201 264.572 165.759 264.815C165.327 265.046 164.98 265.404 164.716 265.888C164.453 266.373 164.322 266.962 164.322 267.657C164.322 268.363 164.448 268.957 164.701 269.442C164.964 269.926 165.311 270.289 165.743 270.531C166.175 270.763 166.648 270.879 167.164 270.879ZM181.166 263.346V272H179.729V270.721C179.455 271.163 179.071 271.51 178.576 271.763C178.092 272.005 177.555 272.126 176.965 272.126C176.292 272.126 175.686 271.989 175.149 271.716C174.612 271.431 174.186 271.01 173.87 270.452C173.565 269.894 173.412 269.215 173.412 268.415V263.346H174.834V268.226C174.834 269.078 175.049 269.736 175.481 270.2C175.913 270.652 176.502 270.879 177.25 270.879C178.018 270.879 178.624 270.642 179.066 270.168C179.508 269.694 179.729 269.005 179.729 268.099V263.346H181.166ZM185.03 264.751C185.282 264.257 185.64 263.872 186.104 263.599C186.577 263.325 187.151 263.188 187.825 263.188V264.672H187.446C185.835 264.672 185.03 265.546 185.03 267.294V272H183.593V263.346H185.03V264.751ZM195.131 264.941C195.415 264.446 195.836 264.036 196.394 263.709C196.963 263.372 197.621 263.204 198.368 263.204C199.137 263.204 199.832 263.388 200.453 263.757C201.085 264.125 201.58 264.646 201.937 265.32C202.295 265.983 202.474 266.757 202.474 267.641C202.474 268.515 202.295 269.294 201.937 269.979C201.58 270.663 201.085 271.195 200.453 271.574C199.832 271.953 199.137 272.142 198.368 272.142C197.632 272.142 196.979 271.979 196.41 271.653C195.852 271.316 195.426 270.9 195.131 270.405V276.106H193.694V263.346H195.131V264.941ZM201.006 267.641C201.006 266.989 200.874 266.42 200.611 265.936C200.348 265.452 199.99 265.083 199.537 264.83C199.095 264.578 198.605 264.451 198.068 264.451C197.542 264.451 197.052 264.583 196.6 264.846C196.158 265.099 195.8 265.473 195.526 265.967C195.263 266.452 195.131 267.015 195.131 267.657C195.131 268.31 195.263 268.884 195.526 269.379C195.8 269.863 196.158 270.237 196.6 270.5C197.052 270.752 197.542 270.879 198.068 270.879C198.605 270.879 199.095 270.752 199.537 270.5C199.99 270.237 200.348 269.863 200.611 269.379C200.874 268.884 201.006 268.305 201.006 267.641ZM205.803 264.751C206.056 264.257 206.414 263.872 206.877 263.599C207.351 263.325 207.925 263.188 208.598 263.188V264.672H208.219C206.608 264.672 205.803 265.546 205.803 267.294V272H204.366V263.346H205.803V264.751ZM210.999 261.94C210.726 261.94 210.494 261.846 210.305 261.656C210.115 261.467 210.02 261.235 210.02 260.961C210.02 260.688 210.115 260.456 210.305 260.266C210.494 260.077 210.726 259.982 210.999 259.982C211.263 259.982 211.484 260.077 211.663 260.266C211.852 260.456 211.947 260.688 211.947 260.961C211.947 261.235 211.852 261.467 211.663 261.656C211.484 261.846 211.263 261.94 210.999 261.94ZM211.694 263.346V272H210.257V263.346H211.694ZM217.918 272.142C217.107 272.142 216.37 271.958 215.707 271.589C215.054 271.221 214.538 270.7 214.159 270.026C213.791 269.342 213.607 268.552 213.607 267.657C213.607 266.773 213.796 265.994 214.175 265.32C214.565 264.636 215.091 264.114 215.754 263.757C216.418 263.388 217.16 263.204 217.981 263.204C218.802 263.204 219.544 263.388 220.208 263.757C220.871 264.114 221.392 264.63 221.771 265.304C222.161 265.978 222.355 266.762 222.355 267.657C222.355 268.552 222.155 269.342 221.755 270.026C221.366 270.7 220.834 271.221 220.16 271.589C219.487 271.958 218.739 272.142 217.918 272.142ZM217.918 270.879C218.434 270.879 218.918 270.758 219.371 270.516C219.823 270.273 220.187 269.91 220.46 269.426C220.745 268.942 220.887 268.352 220.887 267.657C220.887 266.962 220.75 266.373 220.476 265.888C220.202 265.404 219.844 265.046 219.402 264.815C218.96 264.572 218.481 264.451 217.965 264.451C217.439 264.451 216.955 264.572 216.512 264.815C216.081 265.046 215.733 265.404 215.47 265.888C215.207 266.373 215.075 266.962 215.075 267.657C215.075 268.363 215.202 268.957 215.454 269.442C215.717 269.926 216.065 270.289 216.497 270.531C216.928 270.763 217.402 270.879 217.918 270.879ZM225.682 264.751C225.935 264.257 226.293 263.872 226.756 263.599C227.23 263.325 227.803 263.188 228.477 263.188V264.672H228.098C226.487 264.672 225.682 265.546 225.682 267.294V272H224.245V263.346H225.682V264.751ZM230.878 261.94C230.605 261.94 230.373 261.846 230.184 261.656C229.994 261.467 229.899 261.235 229.899 260.961C229.899 260.688 229.994 260.456 230.184 260.266C230.373 260.077 230.605 259.982 230.878 259.982C231.142 259.982 231.363 260.077 231.542 260.266C231.731 260.456 231.826 260.688 231.826 260.961C231.826 261.235 231.731 261.467 231.542 261.656C231.363 261.846 231.142 261.94 230.878 261.94ZM231.573 263.346V272H230.136V263.346H231.573ZM235.775 264.53V269.631C235.775 270.052 235.865 270.352 236.044 270.531C236.223 270.7 236.533 270.784 236.976 270.784H238.034V272H236.739C235.939 272 235.338 271.816 234.938 271.447C234.538 271.079 234.338 270.473 234.338 269.631V264.53H233.217V263.346H234.338V261.167H235.775V263.346H238.034V264.53H235.775ZM247.229 263.346L242.017 276.074H240.533L242.238 271.905L238.748 263.346H240.343L243.06 270.358L245.744 263.346H247.229Z" fill="#3A3A3A"/>
<path d="M162.001 150.283C148.501 169.783 139.001 204.283 139.001 204.283C139.001 204.283 173.501 172.283 200.001 152.283C226.501 132.283 240.501 118.283 250.501 97.2827C260.501 76.2828 263.001 48.2828 247.001 24.2828C231.001 0.282768 202.501 -3.71727 181.001 2.78275C159.501 9.28278 151.001 31.2828 151.001 31.2828V49.2827C151.001 49.2827 162.501 28.2828 183.501 24.7828C204.501 21.2828 223.501 35.7828 225.501 55.7828C227.501 75.7828 219.501 86.2828 207.501 101.283C195.501 116.283 175.501 130.783 162.001 150.283Z" fill="#00AEBE"/>
<path d="M133.001 201.283C123.234 165.565 102.315 171.271 76.5012 155.783C56.5012 143.783 40.2495 101.737 40.0012 93.7828C39.7529 85.8289 45.0012 84.2828 54.0012 97.2828C63.0013 110.283 71.5011 123.117 82.0012 132.92C92.5012 142.723 126.001 148.783 95.0012 134.783C74.5012 120.783 75.9759 113.281 78.5012 109.783C81.0257 106.284 93.3561 113.314 105.001 117.283C116.646 121.251 135.606 124.094 146.001 140.783C154.099 153.783 133.001 201.283 133.001 201.283Z" fill="#00AEBE"/>
<path d="M151.005 50.0655C151.005 50.0655 139.001 29.6081 117.501 25.0655C96.0012 20.523 76.0012 35.7828 74.0012 55.7828C72.0012 75.7828 79.5012 87.2828 94.5048 102.066C94.5048 102.066 85.4732 96.7869 78.5012 97.7828C74.1178 98.4089 73.0012 100.283 68.5012 105.283C64.0012 97.2828 57.7416 86.9718 52.0012 82.7828C41.7235 75.2828 39.0048 49.0655 55.0048 25.0655C71.0048 1.06554 99.5048 -2.9345 121.005 3.56553C142.505 10.0656 151.005 32.0655 151.005 32.0655V50.0655Z" fill="#0082B2"/>
</svg>
