<svg width="345" height="358" viewBox="0 0 345 358" fill="none" xmlns="http://www.w3.org/2000/svg">
<path d="M44.015 173.574C43.696 165.556 49.838 161.284 52.622 173.045C55.407 184.806 59.211 211.065 59.211 211.065C59.211 211.065 44.475 208.471 44.634 207.424C44.793 206.376 44.015 173.574 44.015 173.574Z" fill="#137274"/>
<path d="M29.806 153.84C29.412 143.938 36.997 138.662 40.437 153.187C43.876 167.712 48.574 200.143 48.574 200.143C48.574 200.143 30.374 196.94 30.571 195.646C30.767 194.353 29.806 153.84 29.806 153.84Z" fill="#1E9799"/>
<path d="M15.538 140.004C15.1 128.995 23.533 123.129 27.357 139.278C31.181 155.427 36.404 191.482 36.404 191.482C36.404 191.482 12.191 166.502 12.41 165.063C12.627 163.625 15.538 140.004 15.538 140.004Z" fill="#39BABE"/>
<path d="M111.796 289.824C108.413 236.702 53.467 233.556 29.792 214.715C6.11702 195.874 0.916009 147.789 2.37901 136.992C3.84201 126.195 9.57101 120.876 14.332 135.945C19.093 151.014 23.536 178.155 41.496 190.691C59.457 203.227 98.931 209.153 73.943 191.038C48.955 172.923 54.628 153.231 58.825 149.078C63.021 144.925 74.389 168.63 89.199 176.625C104.009 184.619 124.487 193.08 134.736 217.969C149 252.607 111.796 289.824 111.796 289.824Z" fill="url(#paint0_linear_6_25)"/>
<path d="M224.679 23.73C208.333 12.581 181.191 6.204 154.551 23.332C143.75 33.612 134.667 47.548 128.565 65.629C128.565 65.629 97.247 31.179 47.138 49.97C-2.971 68.761 0.161001 123.046 0.161001 123.046C0.161001 123.046 14.573 78.84 62.797 76.069C111.119 73.292 131.745 122.649 131.745 122.649C131.745 122.649 142.245 72.615 185.982 61.453C226.31 51.161 250.579 82.828 240.375 122.25C257.713 82.07 250.651 41.444 224.679 23.73Z" fill="url(#paint1_linear_6_25)"/>
<path d="M199.761 198.474C199.761 198.474 163.898 143.267 90.983 169.501C90.983 169.501 128.245 168.718 145.219 211.259C155.778 237.721 134.698 274.928 134.698 274.928C134.698 274.928 170.665 242.457 199.761 198.474Z" fill="url(#paint2_linear_6_25)"/>
<path d="M279.936 33.267C255.272 -3.089 193.64 -13.87 154.551 23.332C181.19 6.203 208.333 12.581 224.679 23.73C250.651 41.444 257.713 82.07 240.375 122.25C239.361 126.165 238.013 130.156 236.301 134.191C219.635 173.475 199.761 198.474 199.761 198.474C170.665 242.457 134.698 274.928 134.698 274.928C295.847 207.281 322.237 95.622 279.936 33.267Z" fill="url(#paint3_linear_6_25)"/>
<path d="M60.9951 324.697C58.694 324.697 56.7124 324.154 55.0505 323.067C53.3886 321.98 52.1101 320.483 51.2153 318.576C50.3204 316.67 49.8729 314.491 49.8729 312.041C49.8729 309.548 50.331 307.348 51.2472 305.441C52.1741 303.523 53.4631 302.026 55.1144 300.95C56.7763 299.864 58.7153 299.32 60.9312 299.32C62.657 299.32 64.2124 299.64 65.5974 300.279C66.9823 300.918 68.1169 301.813 69.0011 302.964C69.8854 304.114 70.434 305.457 70.6471 306.991H66.8758C66.5881 305.872 65.9489 304.882 64.9582 304.019C63.978 303.145 62.657 302.708 60.9951 302.708C59.5249 302.708 58.2359 303.092 57.1279 303.859C56.0306 304.615 55.173 305.686 54.5551 307.071C53.9479 308.445 53.6442 310.059 53.6442 311.913C53.6442 313.809 53.9425 315.46 54.5391 316.867C55.1464 318.273 55.9986 319.365 57.0959 320.143C58.2039 320.92 59.5036 321.309 60.9951 321.309C61.9752 321.309 62.8648 321.139 63.6638 320.798C64.4628 320.457 65.1393 319.967 65.6932 319.328C66.2472 318.688 66.6414 317.921 66.8758 317.026H70.6471C70.434 318.475 69.9067 319.78 69.065 320.942C68.2341 322.092 67.1315 323.008 65.7572 323.69C64.3935 324.361 62.8062 324.697 60.9951 324.697ZM83.3832 324.761C81.8278 324.761 80.4163 324.468 79.1485 323.882C77.8807 323.285 76.874 322.428 76.1283 321.309C75.3825 320.18 75.0096 318.816 75.0096 317.218C75.0096 315.812 75.2866 314.672 75.8406 313.798C76.3946 312.914 77.135 312.222 78.0618 311.721C78.9887 311.22 80.0114 310.847 81.13 310.602C82.2593 310.347 83.3939 310.144 84.5338 309.995C86.0253 309.803 87.2344 309.66 88.1613 309.564C89.0988 309.457 89.7806 309.281 90.2067 309.036C90.6435 308.791 90.8619 308.365 90.8619 307.758V307.63C90.8619 306.053 90.4305 304.828 89.5675 303.955C88.7153 303.081 87.4209 302.644 85.6844 302.644C83.8839 302.644 82.4724 303.038 81.4496 303.827C80.4269 304.615 79.7078 305.457 79.2923 306.352L75.7128 305.073C76.352 303.582 77.2043 302.421 78.2696 301.59C79.3456 300.748 80.5175 300.162 81.7852 299.832C83.0636 299.491 84.3207 299.32 85.5565 299.32C86.3449 299.32 87.2504 299.416 88.2731 299.608C89.3065 299.789 90.3026 300.167 91.2614 300.743C92.2309 301.318 93.0352 302.186 93.6744 303.347C94.3136 304.509 94.6332 306.064 94.6332 308.014V324.185H90.8619V320.862H90.6702C90.4145 321.394 89.9883 321.964 89.3918 322.571C88.7952 323.179 88.0015 323.695 87.0107 324.122C86.0199 324.548 84.8108 324.761 83.3832 324.761ZM83.9585 321.373C85.45 321.373 86.7071 321.08 87.7298 320.494C88.7632 319.908 89.5409 319.152 90.0629 318.225C90.5956 317.298 90.8619 316.323 90.8619 315.301V311.849C90.7021 312.041 90.3506 312.216 89.8072 312.376C89.2746 312.525 88.6567 312.658 87.9535 312.776C87.2611 312.882 86.5846 312.978 85.9241 313.063C85.2742 313.138 84.7469 313.202 84.342 313.255C83.3619 313.383 82.4457 313.591 81.5935 313.878C80.7518 314.155 80.07 314.576 79.548 315.141C79.0366 315.695 78.781 316.451 78.781 317.41C78.781 318.72 79.2657 319.711 80.2351 320.382C81.2153 321.043 82.4564 321.373 83.9585 321.373ZM101.517 324.185V299.64H105.16V303.347H105.416C105.863 302.133 106.673 301.147 107.845 300.391C109.017 299.635 110.338 299.257 111.808 299.257C112.085 299.257 112.431 299.262 112.847 299.272C113.262 299.283 113.576 299.299 113.789 299.32V303.156C113.662 303.124 113.369 303.076 112.91 303.012C112.463 302.937 111.989 302.9 111.488 302.9C110.295 302.9 109.23 303.15 108.292 303.651C107.365 304.141 106.63 304.823 106.087 305.696C105.554 306.559 105.288 307.545 105.288 308.653V324.185H101.517ZM127.804 324.697C125.439 324.697 123.399 324.175 121.684 323.131C119.979 322.076 118.663 320.606 117.736 318.72C116.82 316.824 116.362 314.619 116.362 312.105C116.362 309.59 116.82 307.374 117.736 305.457C118.663 303.529 119.952 302.026 121.604 300.95C123.266 299.864 125.205 299.32 127.42 299.32C128.699 299.32 129.961 299.533 131.208 299.96C132.454 300.386 133.589 301.078 134.611 302.037C135.634 302.985 136.449 304.242 137.056 305.808C137.664 307.374 137.967 309.303 137.967 311.593V313.191H119.047V309.931H134.132C134.132 308.546 133.855 307.31 133.301 306.224C132.758 305.137 131.98 304.28 130.968 303.651C129.967 303.022 128.784 302.708 127.42 302.708C125.918 302.708 124.619 303.081 123.521 303.827C122.435 304.562 121.598 305.521 121.012 306.703C120.426 307.886 120.133 309.154 120.133 310.507V312.68C120.133 314.533 120.453 316.105 121.092 317.394C121.742 318.672 122.642 319.647 123.793 320.318C124.944 320.979 126.281 321.309 127.804 321.309C128.795 321.309 129.69 321.171 130.489 320.894C131.298 320.606 131.996 320.18 132.582 319.615C133.168 319.04 133.621 318.326 133.94 317.474L137.584 318.497C137.2 319.732 136.556 320.819 135.65 321.757C134.745 322.683 133.626 323.408 132.294 323.93C130.963 324.441 129.466 324.697 127.804 324.697ZM163.583 324.761C162.028 324.761 160.616 324.468 159.349 323.882C158.081 323.285 157.074 322.428 156.328 321.309C155.583 320.18 155.21 318.816 155.21 317.218C155.21 315.812 155.487 314.672 156.041 313.798C156.595 312.914 157.335 312.222 158.262 311.721C159.189 311.22 160.212 310.847 161.33 310.602C162.459 310.347 163.594 310.144 164.734 309.995C166.225 309.803 167.435 309.66 168.361 309.564C169.299 309.457 169.981 309.281 170.407 309.036C170.844 308.791 171.062 308.365 171.062 307.758V307.63C171.062 306.053 170.631 304.828 169.768 303.955C168.915 303.081 167.621 302.644 165.885 302.644C164.084 302.644 162.673 303.038 161.65 303.827C160.627 304.615 159.908 305.457 159.493 306.352L155.913 305.073C156.552 303.582 157.404 302.421 158.47 301.59C159.546 300.748 160.718 300.162 161.985 299.832C163.264 299.491 164.521 299.32 165.757 299.32C166.545 299.32 167.451 299.416 168.473 299.608C169.507 299.789 170.503 300.167 171.462 300.743C172.431 301.318 173.235 302.186 173.875 303.347C174.514 304.509 174.833 306.064 174.833 308.014V324.185H171.062V320.862H170.87C170.615 321.394 170.189 321.964 169.592 322.571C168.995 323.179 168.202 323.695 167.211 324.122C166.22 324.548 165.011 324.761 163.583 324.761ZM164.159 321.373C165.65 321.373 166.907 321.08 167.93 320.494C168.963 319.908 169.741 319.152 170.263 318.225C170.796 317.298 171.062 316.323 171.062 315.301V311.849C170.902 312.041 170.551 312.216 170.007 312.376C169.475 312.525 168.857 312.658 168.154 312.776C167.461 312.882 166.785 312.978 166.124 313.063C165.474 313.138 164.947 313.202 164.542 313.255C163.562 313.383 162.646 313.591 161.794 313.878C160.952 314.155 160.27 314.576 159.748 315.141C159.237 315.695 158.981 316.451 158.981 317.41C158.981 318.72 159.466 319.711 160.435 320.382C161.415 321.043 162.657 321.373 164.159 321.373ZM199.103 305.137L195.715 306.096C195.502 305.531 195.188 304.983 194.773 304.45C194.368 303.907 193.814 303.459 193.111 303.108C192.408 302.756 191.507 302.58 190.41 302.58C188.908 302.58 187.656 302.927 186.655 303.619C185.664 304.301 185.169 305.169 185.169 306.224C185.169 307.161 185.509 307.902 186.191 308.445C186.873 308.988 187.938 309.441 189.387 309.803L193.031 310.698C195.225 311.231 196.861 312.046 197.937 313.143C199.013 314.23 199.551 315.631 199.551 317.346C199.551 318.752 199.146 320.009 198.336 321.117C197.537 322.225 196.419 323.099 194.98 323.738C193.542 324.377 191.87 324.697 189.963 324.697C187.459 324.697 185.387 324.154 183.746 323.067C182.106 321.98 181.067 320.393 180.63 318.305L184.21 317.41C184.551 318.731 185.195 319.722 186.143 320.382C187.102 321.043 188.354 321.373 189.899 321.373C191.656 321.373 193.052 321 194.085 320.254C195.129 319.498 195.652 318.592 195.652 317.538C195.652 316.685 195.353 315.972 194.757 315.396C194.16 314.81 193.244 314.374 192.008 314.086L187.917 313.127C185.669 312.595 184.018 311.769 182.963 310.65C181.919 309.521 181.397 308.109 181.397 306.416C181.397 305.031 181.786 303.806 182.564 302.74C183.352 301.675 184.423 300.839 185.776 300.231C187.139 299.624 188.684 299.32 190.41 299.32C192.839 299.32 194.746 299.853 196.131 300.918C197.527 301.984 198.517 303.39 199.103 305.137ZM222.614 305.137L219.226 306.096C219.013 305.531 218.699 304.983 218.283 304.45C217.879 303.907 217.325 303.459 216.621 303.108C215.918 302.756 215.018 302.58 213.921 302.58C212.419 302.58 211.167 302.927 210.165 303.619C209.175 304.301 208.679 305.169 208.679 306.224C208.679 307.161 209.02 307.902 209.702 308.445C210.384 308.988 211.449 309.441 212.898 309.803L216.542 310.698C218.736 311.231 220.371 312.046 221.447 313.143C222.523 314.23 223.061 315.631 223.061 317.346C223.061 318.752 222.657 320.009 221.847 321.117C221.048 322.225 219.929 323.099 218.491 323.738C217.053 324.377 215.38 324.697 213.473 324.697C210.97 324.697 208.898 324.154 207.257 323.067C205.616 321.98 204.578 320.393 204.141 318.305L207.72 317.41C208.061 318.731 208.706 319.722 209.654 320.382C210.613 321.043 211.865 321.373 213.409 321.373C215.167 321.373 216.563 321 217.596 320.254C218.64 319.498 219.162 318.592 219.162 317.538C219.162 316.685 218.864 315.972 218.267 315.396C217.671 314.81 216.755 314.374 215.519 314.086L211.428 313.127C209.18 312.595 207.529 311.769 206.474 310.65C205.43 309.521 204.908 308.109 204.908 306.416C204.908 305.031 205.297 303.806 206.075 302.74C206.863 301.675 207.934 300.839 209.287 300.231C210.65 299.624 212.195 299.32 213.921 299.32C216.35 299.32 218.257 299.853 219.642 300.918C221.037 301.984 222.028 303.39 222.614 305.137ZM228.738 324.185V299.64H232.51V324.185H228.738ZM230.656 295.549C229.921 295.549 229.287 295.299 228.754 294.798C228.232 294.297 227.971 293.695 227.971 292.992C227.971 292.289 228.232 291.687 228.754 291.187C229.287 290.686 229.921 290.435 230.656 290.435C231.391 290.435 232.02 290.686 232.542 291.187C233.074 291.687 233.341 292.289 233.341 292.992C233.341 293.695 233.074 294.297 232.542 294.798C232.02 295.299 231.391 295.549 230.656 295.549ZM256.803 305.137L253.416 306.096C253.203 305.531 252.888 304.983 252.473 304.45C252.068 303.907 251.514 303.459 250.811 303.108C250.108 302.756 249.208 302.58 248.11 302.58C246.608 302.58 245.356 302.927 244.355 303.619C243.364 304.301 242.869 305.169 242.869 306.224C242.869 307.161 243.21 307.902 243.891 308.445C244.573 308.988 245.639 309.441 247.088 309.803L250.731 310.698C252.926 311.231 254.561 312.046 255.637 313.143C256.713 314.23 257.251 315.631 257.251 317.346C257.251 318.752 256.846 320.009 256.036 321.117C255.237 322.225 254.119 323.099 252.681 323.738C251.242 324.377 249.57 324.697 247.663 324.697C245.159 324.697 243.087 324.154 241.447 323.067C239.806 321.98 238.767 320.393 238.33 318.305L241.91 317.41C242.251 318.731 242.895 319.722 243.844 320.382C244.802 321.043 246.054 321.373 247.599 321.373C249.357 321.373 250.752 321 251.786 320.254C252.83 319.498 253.352 318.592 253.352 317.538C253.352 316.685 253.053 315.972 252.457 315.396C251.86 314.81 250.944 314.374 249.708 314.086L245.617 313.127C243.369 312.595 241.718 311.769 240.664 310.65C239.619 309.521 239.097 308.109 239.097 306.416C239.097 305.031 239.486 303.806 240.264 302.74C241.052 301.675 242.123 300.839 243.476 300.231C244.84 299.624 246.384 299.32 248.11 299.32C250.539 299.32 252.446 299.853 253.831 300.918C255.227 301.984 256.217 303.39 256.803 305.137ZM273.603 299.64V302.836H260.882V299.64H273.603ZM264.59 293.759H268.361V317.154C268.361 318.22 268.516 319.019 268.824 319.551C269.144 320.073 269.549 320.425 270.039 320.606C270.54 320.776 271.067 320.862 271.621 320.862C272.036 320.862 272.377 320.84 272.644 320.798C272.91 320.744 273.123 320.702 273.283 320.67L274.05 324.058C273.794 324.154 273.437 324.249 272.979 324.345C272.521 324.452 271.941 324.505 271.237 324.505C270.172 324.505 269.128 324.276 268.105 323.818C267.093 323.36 266.252 322.662 265.58 321.725C264.92 320.787 264.59 319.605 264.59 318.177V293.759ZM286.498 324.761C284.943 324.761 283.531 324.468 282.264 323.882C280.996 323.285 279.989 322.428 279.243 321.309C278.498 320.18 278.125 318.816 278.125 317.218C278.125 315.812 278.402 314.672 278.956 313.798C279.51 312.914 280.25 312.222 281.177 311.721C282.104 311.22 283.127 310.847 284.245 310.602C285.375 310.347 286.509 310.144 287.649 309.995C289.141 309.803 290.35 309.66 291.277 309.564C292.214 309.457 292.896 309.281 293.322 309.036C293.759 308.791 293.977 308.365 293.977 307.758V307.63C293.977 306.053 293.546 304.828 292.683 303.955C291.83 303.081 290.536 302.644 288.8 302.644C286.999 302.644 285.588 303.038 284.565 303.827C283.542 304.615 282.823 305.457 282.408 306.352L278.828 305.073C279.467 303.582 280.319 302.421 281.385 301.59C282.461 300.748 283.633 300.162 284.9 299.832C286.179 299.491 287.436 299.32 288.672 299.32C289.46 299.32 290.366 299.416 291.388 299.608C292.422 299.789 293.418 300.167 294.377 300.743C295.346 301.318 296.15 302.186 296.79 303.347C297.429 304.509 297.748 306.064 297.748 308.014V324.185H293.977V320.862H293.785C293.53 321.394 293.104 321.964 292.507 322.571C291.91 323.179 291.117 323.695 290.126 324.122C289.135 324.548 287.926 324.761 286.498 324.761ZM287.074 321.373C288.565 321.373 289.822 321.08 290.845 320.494C291.878 319.908 292.656 319.152 293.178 318.225C293.711 317.298 293.977 316.323 293.977 315.301V311.849C293.817 312.041 293.466 312.216 292.922 312.376C292.39 312.525 291.772 312.658 291.069 312.776C290.376 312.882 289.7 312.978 289.039 313.063C288.389 313.138 287.862 313.202 287.457 313.255C286.477 313.383 285.561 313.591 284.709 313.878C283.867 314.155 283.185 314.576 282.663 315.141C282.152 315.695 281.896 316.451 281.896 317.41C281.896 318.72 282.381 319.711 283.35 320.382C284.33 321.043 285.572 321.373 287.074 321.373ZM308.403 309.42V324.185H304.632V299.64H308.275V303.475H308.595C309.17 302.229 310.044 301.227 311.216 300.471C312.388 299.704 313.9 299.32 315.754 299.32C317.416 299.32 318.87 299.661 320.117 300.343C321.363 301.014 322.333 302.037 323.025 303.411C323.717 304.775 324.064 306.501 324.064 308.589V324.185H320.292V308.845C320.292 306.916 319.792 305.414 318.79 304.338C317.789 303.252 316.415 302.708 314.667 302.708C313.464 302.708 312.388 302.969 311.439 303.491C310.502 304.013 309.762 304.775 309.218 305.776C308.675 306.778 308.403 307.992 308.403 309.42ZM341.63 299.64V302.836H328.91V299.64H341.63ZM332.617 293.759H336.388V317.154C336.388 318.22 336.543 319.019 336.852 319.551C337.171 320.073 337.576 320.425 338.066 320.606C338.567 320.776 339.094 320.862 339.648 320.862C340.064 320.862 340.405 320.84 340.671 320.798C340.937 320.744 341.15 320.702 341.31 320.67L342.077 324.058C341.822 324.154 341.465 324.249 341.007 324.345C340.549 324.452 339.968 324.505 339.265 324.505C338.199 324.505 337.155 324.276 336.133 323.818C335.121 323.36 334.279 322.662 333.608 321.725C332.947 320.787 332.617 319.605 332.617 318.177V293.759Z" fill="#034C71"/>
<path d="M94.9496 340.714L91.3648 347.568V351.722H89.9277V347.568L86.3271 340.714H87.9222L90.6384 346.289L93.3546 340.714H94.9496ZM100.24 351.864C99.4291 351.864 98.6921 351.679 98.0288 351.311C97.3761 350.943 96.8602 350.421 96.4812 349.748C96.1127 349.063 95.9285 348.274 95.9285 347.379C95.9285 346.494 96.118 345.715 96.497 345.042C96.8866 344.357 97.413 343.836 98.0762 343.478C98.7395 343.11 99.4817 342.925 100.303 342.925C101.124 342.925 101.866 343.11 102.53 343.478C103.193 343.836 103.714 344.352 104.093 345.026C104.483 345.7 104.677 346.484 104.677 347.379C104.677 348.274 104.477 349.063 104.077 349.748C103.688 350.421 103.156 350.943 102.482 351.311C101.808 351.679 101.061 351.864 100.24 351.864ZM100.24 350.6C100.756 350.6 101.24 350.479 101.693 350.237C102.145 349.995 102.509 349.632 102.782 349.147C103.067 348.663 103.209 348.074 103.209 347.379C103.209 346.684 103.072 346.094 102.798 345.61C102.524 345.126 102.166 344.768 101.724 344.536C101.282 344.294 100.803 344.173 100.287 344.173C99.7607 344.173 99.2764 344.294 98.8342 344.536C98.4026 344.768 98.0552 345.126 97.792 345.61C97.5288 346.094 97.3972 346.684 97.3972 347.379C97.3972 348.084 97.5235 348.679 97.7762 349.163C98.0394 349.648 98.3868 350.011 98.8185 350.253C99.2501 350.485 99.7239 350.6 100.24 350.6ZM114.242 343.068V351.722H112.805V350.442C112.531 350.885 112.147 351.232 111.652 351.485C111.168 351.727 110.631 351.848 110.041 351.848C109.367 351.848 108.762 351.711 108.225 351.437C107.688 351.153 107.262 350.732 106.946 350.174C106.641 349.616 106.488 348.937 106.488 348.137V343.068H107.909V347.947C107.909 348.8 108.125 349.458 108.557 349.921C108.988 350.374 109.578 350.6 110.325 350.6C111.094 350.6 111.699 350.363 112.141 349.89C112.584 349.416 112.805 348.726 112.805 347.821V343.068H114.242ZM118.105 344.473C118.358 343.978 118.716 343.594 119.179 343.32C119.653 343.046 120.227 342.91 120.9 342.91V344.394H120.521C118.911 344.394 118.105 345.268 118.105 347.016V351.722H116.668V343.068H118.105V344.473ZM131.065 342.91C131.718 342.91 132.307 343.052 132.834 343.336C133.36 343.61 133.771 344.026 134.066 344.584C134.371 345.142 134.524 345.821 134.524 346.621V351.722H133.102V346.826C133.102 345.963 132.886 345.305 132.455 344.852C132.023 344.389 131.434 344.157 130.686 344.157C129.928 344.157 129.323 344.394 128.87 344.868C128.428 345.342 128.207 346.031 128.207 346.937V351.722H126.77V340.035H128.207V344.299C128.491 343.857 128.88 343.515 129.375 343.273C129.881 343.031 130.444 342.91 131.065 342.91ZM144.767 347.063C144.767 347.337 144.751 347.626 144.72 347.931H137.803C137.855 348.784 138.145 349.453 138.671 349.937C139.208 350.411 139.856 350.648 140.614 350.648C141.235 350.648 141.751 350.506 142.161 350.221C142.582 349.927 142.877 349.537 143.046 349.053H144.593C144.362 349.884 143.898 350.564 143.204 351.09C142.509 351.606 141.645 351.864 140.614 351.864C139.793 351.864 139.056 351.679 138.403 351.311C137.761 350.943 137.255 350.421 136.887 349.748C136.518 349.063 136.334 348.274 136.334 347.379C136.334 346.484 136.513 345.7 136.871 345.026C137.229 344.352 137.729 343.836 138.371 343.478C139.024 343.11 139.771 342.925 140.614 342.925C141.435 342.925 142.161 343.104 142.793 343.462C143.425 343.82 143.909 344.315 144.246 344.947C144.593 345.568 144.767 346.273 144.767 347.063ZM143.283 346.763C143.283 346.215 143.162 345.747 142.919 345.357C142.677 344.957 142.346 344.657 141.924 344.457C141.514 344.247 141.056 344.141 140.551 344.141C139.824 344.141 139.203 344.373 138.687 344.836C138.182 345.299 137.892 345.942 137.819 346.763H143.283ZM146.127 347.363C146.127 346.479 146.306 345.705 146.664 345.042C147.022 344.368 147.511 343.847 148.133 343.478C148.764 343.11 149.464 342.925 150.233 342.925C150.991 342.925 151.649 343.089 152.207 343.415C152.765 343.741 153.181 344.152 153.455 344.647V343.068H154.907V351.722H153.455V350.111C153.17 350.616 152.744 351.037 152.175 351.374C151.617 351.701 150.965 351.864 150.217 351.864C149.449 351.864 148.754 351.674 148.133 351.295C147.511 350.916 147.022 350.385 146.664 349.7C146.306 349.016 146.127 348.237 146.127 347.363ZM153.455 347.379C153.455 346.726 153.323 346.158 153.06 345.673C152.797 345.189 152.439 344.82 151.986 344.568C151.544 344.305 151.054 344.173 150.517 344.173C149.98 344.173 149.491 344.299 149.049 344.552C148.606 344.805 148.254 345.173 147.99 345.657C147.727 346.142 147.596 346.71 147.596 347.363C147.596 348.026 147.727 348.605 147.99 349.1C148.254 349.584 148.606 349.958 149.049 350.221C149.491 350.474 149.98 350.6 150.517 350.6C151.054 350.6 151.544 350.474 151.986 350.221C152.439 349.958 152.797 349.584 153.06 349.1C153.323 348.605 153.455 348.032 153.455 347.379ZM158.773 340.035V351.722H157.336V340.035H158.773ZM162.975 344.252V349.353C162.975 349.774 163.065 350.074 163.244 350.253C163.423 350.421 163.733 350.506 164.175 350.506H165.233V351.722H163.939C163.138 351.722 162.538 351.537 162.138 351.169C161.738 350.8 161.538 350.195 161.538 349.353V344.252H160.417V343.068H161.538V340.888H162.975V343.068H165.233V344.252H162.975ZM171.27 342.91C171.923 342.91 172.512 343.052 173.039 343.336C173.565 343.61 173.976 344.026 174.271 344.584C174.576 345.142 174.729 345.821 174.729 346.621V351.722H173.307V346.826C173.307 345.963 173.091 345.305 172.66 344.852C172.228 344.389 171.639 344.157 170.891 344.157C170.133 344.157 169.528 344.394 169.075 344.868C168.633 345.342 168.412 346.031 168.412 346.937V351.722H166.975V340.035H168.412V344.299C168.696 343.857 169.086 343.515 169.58 343.273C170.086 343.031 170.649 342.91 171.27 342.91ZM178.561 349.732L176.792 353.98H175.829L176.981 349.732H178.561ZM188.191 351.864C187.381 351.864 186.644 351.679 185.98 351.311C185.328 350.943 184.812 350.421 184.433 349.748C184.064 349.063 183.88 348.274 183.88 347.379C183.88 346.494 184.07 345.715 184.449 345.042C184.838 344.357 185.364 343.836 186.028 343.478C186.691 343.11 187.433 342.925 188.254 342.925C189.076 342.925 189.818 343.11 190.481 343.478C191.144 343.836 191.666 344.352 192.045 345.026C192.434 345.7 192.629 346.484 192.629 347.379C192.629 348.274 192.429 349.063 192.029 349.748C191.639 350.421 191.108 350.943 190.434 351.311C189.76 351.679 189.012 351.864 188.191 351.864ZM188.191 350.6C188.707 350.6 189.191 350.479 189.644 350.237C190.097 349.995 190.46 349.632 190.734 349.147C191.018 348.663 191.16 348.074 191.16 347.379C191.16 346.684 191.023 346.094 190.75 345.61C190.476 345.126 190.118 344.768 189.676 344.536C189.234 344.294 188.755 344.173 188.239 344.173C187.712 344.173 187.228 344.294 186.786 344.536C186.354 344.768 186.007 345.126 185.743 345.61C185.48 346.094 185.349 346.684 185.349 347.379C185.349 348.084 185.475 348.679 185.728 349.163C185.991 349.648 186.338 350.011 186.77 350.253C187.202 350.485 187.675 350.6 188.191 350.6ZM202.193 343.068V351.722H200.756V350.442C200.482 350.885 200.098 351.232 199.603 351.485C199.119 351.727 198.582 351.848 197.993 351.848C197.319 351.848 196.713 351.711 196.177 351.437C195.64 351.153 195.213 350.732 194.897 350.174C194.592 349.616 194.439 348.937 194.439 348.137V343.068H195.861V347.947C195.861 348.8 196.076 349.458 196.508 349.921C196.94 350.374 197.529 350.6 198.277 350.6C199.045 350.6 199.651 350.363 200.093 349.89C200.535 349.416 200.756 348.726 200.756 347.821V343.068H202.193ZM206.057 344.473C206.309 343.978 206.667 343.594 207.131 343.32C207.604 343.046 208.178 342.91 208.852 342.91V344.394H208.473C206.862 344.394 206.057 345.268 206.057 347.016V351.722H204.62V343.068H206.057V344.473ZM216.158 344.663C216.442 344.168 216.864 343.757 217.422 343.431C217.99 343.094 218.648 342.925 219.396 342.925C220.164 342.925 220.859 343.11 221.48 343.478C222.112 343.847 222.607 344.368 222.965 345.042C223.323 345.705 223.502 346.479 223.502 347.363C223.502 348.237 223.323 349.016 222.965 349.7C222.607 350.385 222.112 350.916 221.48 351.295C220.859 351.674 220.164 351.864 219.396 351.864C218.659 351.864 218.006 351.701 217.437 351.374C216.879 351.037 216.453 350.621 216.158 350.127V355.828H214.721V343.068H216.158V344.663ZM222.033 347.363C222.033 346.71 221.901 346.142 221.638 345.657C221.375 345.173 221.017 344.805 220.564 344.552C220.122 344.299 219.632 344.173 219.096 344.173C218.569 344.173 218.08 344.305 217.627 344.568C217.185 344.82 216.827 345.194 216.553 345.689C216.29 346.173 216.158 346.737 216.158 347.379C216.158 348.032 216.29 348.605 216.553 349.1C216.827 349.584 217.185 349.958 217.627 350.221C218.08 350.474 218.569 350.6 219.096 350.6C219.632 350.6 220.122 350.474 220.564 350.221C221.017 349.958 221.375 349.584 221.638 349.1C221.901 348.605 222.033 348.026 222.033 347.363ZM226.83 344.473C227.083 343.978 227.441 343.594 227.904 343.32C228.378 343.046 228.952 342.91 229.625 342.91V344.394H229.246C227.636 344.394 226.83 345.268 226.83 347.016V351.722H225.393V343.068H226.83V344.473ZM232.027 341.662C231.753 341.662 231.521 341.567 231.332 341.378C231.142 341.188 231.047 340.957 231.047 340.683C231.047 340.409 231.142 340.178 231.332 339.988C231.521 339.799 231.753 339.704 232.027 339.704C232.29 339.704 232.511 339.799 232.69 339.988C232.879 340.178 232.974 340.409 232.974 340.683C232.974 340.957 232.879 341.188 232.69 341.378C232.511 341.567 232.29 341.662 232.027 341.662ZM232.721 343.068V351.722H231.284V343.068H232.721ZM238.945 351.864C238.134 351.864 237.397 351.679 236.734 351.311C236.081 350.943 235.565 350.421 235.186 349.748C234.818 349.063 234.634 348.274 234.634 347.379C234.634 346.494 234.823 345.715 235.202 345.042C235.592 344.357 236.118 343.836 236.781 343.478C237.445 343.11 238.187 342.925 239.008 342.925C239.829 342.925 240.572 343.11 241.235 343.478C241.898 343.836 242.419 344.352 242.798 345.026C243.188 345.7 243.383 346.484 243.383 347.379C243.383 348.274 243.183 349.063 242.782 349.748C242.393 350.421 241.861 350.943 241.187 351.311C240.514 351.679 239.766 351.864 238.945 351.864ZM238.945 350.6C239.461 350.6 239.945 350.479 240.398 350.237C240.851 349.995 241.214 349.632 241.487 349.147C241.772 348.663 241.914 348.074 241.914 347.379C241.914 346.684 241.777 346.094 241.503 345.61C241.23 345.126 240.872 344.768 240.429 344.536C239.987 344.294 239.508 344.173 238.992 344.173C238.466 344.173 237.982 344.294 237.539 344.536C237.108 344.768 236.76 345.126 236.497 345.61C236.234 346.094 236.102 346.684 236.102 347.379C236.102 348.084 236.229 348.679 236.481 349.163C236.745 349.648 237.092 350.011 237.524 350.253C237.955 350.485 238.429 350.6 238.945 350.6ZM246.709 344.473C246.962 343.978 247.32 343.594 247.783 343.32C248.257 343.046 248.831 342.91 249.504 342.91V344.394H249.125C247.515 344.394 246.709 345.268 246.709 347.016V351.722H245.272V343.068H246.709V344.473ZM251.905 341.662C251.632 341.662 251.4 341.567 251.211 341.378C251.021 341.188 250.926 340.957 250.926 340.683C250.926 340.409 251.021 340.178 251.211 339.988C251.4 339.799 251.632 339.704 251.905 339.704C252.169 339.704 252.39 339.799 252.569 339.988C252.758 340.178 252.853 340.409 252.853 340.683C252.853 340.957 252.758 341.188 252.569 341.378C252.39 341.567 252.169 341.662 251.905 341.662ZM252.6 343.068V351.722H251.163V343.068H252.6ZM256.802 344.252V349.353C256.802 349.774 256.892 350.074 257.071 350.253C257.25 350.421 257.561 350.506 258.003 350.506H259.061V351.722H257.766C256.966 351.722 256.366 351.537 255.966 351.169C255.565 350.8 255.365 350.195 255.365 349.353V344.252H254.244V343.068H255.365V340.888H256.802V343.068H259.061V344.252H256.802ZM268.256 343.068L263.044 355.796H261.56L263.266 351.627L259.775 343.068H261.37L264.087 350.079L266.771 343.068H268.256Z" fill="#3A3A3A"/>
<defs>
<linearGradient id="paint0_linear_6_25" x1="13.8042" y1="127.809" x2="126.468" y2="271.938" gradientUnits="userSpaceOnUse">
<stop stop-color="#39BABE"/>
<stop offset="0.5168" stop-color="#1E9799"/>
<stop offset="1" stop-color="#116668"/>
</linearGradient>
<linearGradient id="paint1_linear_6_25" x1="12.7274" y1="122.843" x2="228.92" y2="61.9438" gradientUnits="userSpaceOnUse">
<stop stop-color="#0885C4"/>
<stop offset="1" stop-color="#034C71"/>
</linearGradient>
<linearGradient id="paint2_linear_6_25" x1="98.7254" y1="175.123" x2="173.835" y2="241.097" gradientUnits="userSpaceOnUse">
<stop stop-color="#0885C4"/>
<stop offset="0.662" stop-color="#0B6C9D"/>
<stop offset="1" stop-color="#034C71"/>
</linearGradient>
<linearGradient id="paint3_linear_6_25" x1="258.066" y1="5.4298" x2="130.177" y2="275.418" gradientUnits="userSpaceOnUse">
<stop stop-color="#39BABE"/>
<stop offset="1" stop-color="#116668"/>
</linearGradient>
</defs>
</svg>
