<svg width="220" height="214" viewBox="0 0 220 214" fill="none" xmlns="http://www.w3.org/2000/svg">
<path d="M123.001 150.283C109.501 169.783 100.001 204.283 100.001 204.283C100.001 204.283 134.501 172.283 161.001 152.283C187.501 132.283 201.501 118.283 211.501 97.2827C221.501 76.2828 224.001 48.2828 208.001 24.2828C192.001 0.282768 163.501 -3.71727 142.001 2.78275C120.501 9.28278 112.001 31.2828 112.001 31.2828V49.2827C112.001 49.2827 123.501 28.2828 144.501 24.7828C165.501 21.2828 184.501 35.7828 186.501 55.7828C188.501 75.7828 180.501 86.2828 168.501 101.283C156.501 116.283 136.501 130.783 123.001 150.283Z" fill="#00AEBE"/>
<path d="M94.0012 201.283C84.2336 165.565 63.3151 171.271 37.5012 155.783C17.5012 143.783 1.24946 101.737 1.00118 93.7828C0.752914 85.8289 6.0012 84.2828 15.0012 97.2828C24.0013 110.283 32.5011 123.117 43.0012 132.92C53.5012 142.723 87.0012 148.783 56.0012 134.783C35.5012 120.783 36.9759 113.281 39.5012 109.783C42.0257 106.284 54.3561 113.314 66.0012 117.283C77.6461 121.251 96.606 124.094 107.001 140.783C115.099 153.783 94.0012 201.283 94.0012 201.283Z" fill="#00AEBE"/>
<path d="M112.005 50.0655C112.005 50.0655 100.001 29.6081 78.5012 25.0655C57.0012 20.523 37.0012 35.7828 35.0012 55.7828C33.0012 75.7828 40.5012 87.2828 55.5048 102.066C55.5048 102.066 46.4732 96.7869 39.5012 97.7828C35.1178 98.4089 34.0012 100.283 29.5012 105.283C25.0012 97.2828 18.7416 86.9718 13.0012 82.7828C2.72353 75.2828 0.00476074 49.0655 16.0048 25.0655C32.0048 1.06554 60.5048 -2.9345 82.0048 3.56553C103.505 10.0656 112.005 32.0655 112.005 32.0655V50.0655Z" fill="#0082B2"/>
</svg>
